<svg width="280" height="280" viewBox="0 0 280 280" fill="none" xmlns="http://www.w3.org/2000/svg">
<rect x="5.6" y="5.6" width="268.8" height="268.8" rx="50.4" fill="black" stroke="url(#paint0_linear)" stroke-width="11.2"/>
<path fill-rule="evenodd" clip-rule="evenodd" d="M209.032 87.9251C188.374 98.0229 186.304 123.094 184.638 143.235C182.737 164.463 180.998 170.276 176.542 170.276C171.257 170.276 169.977 154.162 169.195 139.056C167.977 117.004 166.309 86.8 139.231 86.8C112.294 86.8 110.628 117.007 109.414 139.061C108.631 154.162 107.352 170.276 102.067 170.276C93.0733 170.276 93.0733 124.738 93.0733 88.1479V87.4006H70V88.1479C70 153.656 70 193.2 102.067 193.2C129.604 193.2 131.267 162.648 132.482 140.314C132.935 130.385 133.881 109.724 139.231 109.724C144.391 109.724 145.404 127.634 146.075 139.485L146.127 140.344C147.341 162.651 149.004 193.2 176.542 193.2C203.582 193.2 205.878 165.434 207.554 145.159L207.581 144.887C208.902 129.159 210.266 112.895 219.113 108.757L219.8 108.433L209.703 87.5962L209.032 87.9251Z" fill="white"/>
<defs>
<linearGradient id="paint0_linear" x1="-140" y1="140" x2="140" y2="420" gradientUnits="userSpaceOnUse">
<stop stop-color="#CE55B0"/>
<stop offset="0.171283" stop-color="#F34DAC"/>
<stop offset="0.316536" stop-color="#F48E66"/>
<stop offset="0.434492" stop-color="#F0B832"/>
<stop offset="0.590604" stop-color="#B2CE37"/>
<stop offset="0.750783" stop-color="#63D7AF"/>
<stop offset="0.885965" stop-color="#1CC2DF"/>
<stop offset="1" stop-color="#0580E6"/>
</linearGradient>
</defs>
</svg>
